{
  "source": "C:\\Users\\Peter\\Desktop\\stuff\\MIUN\\quantitative_research\\video_compression\\videos\\BVI-HD\\BVI-HD_CDVL_videos\\ORIG\\Grass_1920x1080_60fps.mp4",
  "output": "C:\\Users\\Peter\\Desktop\\stuff\\MIUN\\quantitative_research\\video_compression\\compressed_videos\\BVI-HD\\av1\\1\\Grass_1920x1080_60fps_av1.mkv",
  "codec": "av1",
  "ok": "Input #0, mov,mp4,m4a,3gp,3g2,mj2, from 'C:\\Users\\Peter\\Desktop\\stuff\\MIUN\\quantitative_research\\video_compression\\videos\\BVI-HD\\BVI-HD_CDVL_videos\\ORIG\\Grass_1920x1080_60fps.mp4':\n  Metadata:\n    major_brand     : isom\n    minor_version   : 512\n    compatible_brands: isomiso2avc1mp41\n    encoder         : Lavf54.28.101\n  Duration: 00:00:05.00, start: 0.000000, bitrate: 655968 kb/s\n  Stream #0:0[0x1](und): Video: h264 (High 4:4:4 Predictive) (avc1 / 0x31637661), yuv420p(progressive), 1920x1080, 655963 kb/s, 60 fps, 60 tbr, 60 tbn (default)\n    Metadata:\n      handler_name    : VideoHandler\n      vendor_id       : [0][0][0][0]\n[out#0/matroska @ 00000217a3b39180] Codec AVOption b:a (set bitrate (in bits/s)) has not been used for any stream. The most likely reason is either wrong type (e.g. a video option with no video streams) or that it is a private option of some decoder which was not actually used for any stream.\nStream mapping:\n  Stream #0:0 -> #0:0 (h264 (native) -> av1 (libsvtav1))\nPress [q] to stop, [?] for help\nSvt[info]: -------------------------------------------\nSvt[info]: SVT [version]:\tSVT-AV1 Encoder Lib v3.1.0-19-g6ecfe8ec\nSvt[info]: SVT [build]  :\tGCC 15.2.0\t 64 bit\nSvt[info]: LIB Build date: Aug 17 2025 11:37:13\nSvt[info]: -------------------------------------------\nSvt[info]: Level of Parallelism: 5\nSvt[info]: Number of PPCS 93\nSvt[info]: [asm level on system : up to avx2]\nSvt[info]: [asm level selected : up to avx2]\nSvt[info]: -------------------------------------------\nSvt[info]: SVT [config]: main profile\ttier (auto)\tlevel (auto)\nSvt[info]: SVT [config]: width / height / fps numerator / fps denominator \t\t: 1920 / 1080 / 60 / 1\nSvt[info]: SVT [config]: bit-depth / color format \t\t\t\t\t: 8 / YUV420\nSvt[info]: SVT [config]: preset / tune / pred struct \t\t\t\t\t: 4 / PSNR / random access\nSvt[info]: SVT [config]: gop size / mini-gop size / key-frame type \t\t\t: 321 / 16 / key frame\nSvt[info]: SVT [config]: BRC mode / target bitrate (kbps)\t\t\t\t: VBR / 1000 \nSvt[info]: SVT [config]: AQ mode / Variance Boost \t\t\t\t\t: 2 / 0\nSvt[info]: SVT [config]: sharpness / luminance-based QP bias \t\t\t\t: 0 / 0\nSvt[info]: SVT [config]: QP scale compress strength \t\t\t\t\t: 0\nSvt[info]: -------------------------------------------\nOutput #0, matroska, to 'C:\\Users\\Peter\\Desktop\\stuff\\MIUN\\quantitative_research\\video_compression\\compressed_videos\\BVI-HD\\av1\\1\\Grass_1920x1080_60fps_av1.mkv':\n  Metadata:\n    major_brand     : isom\n    minor_version   : 512\n    compatible_brands: isomiso2avc1mp41\n    encoder         : Lavf62.3.100\n  Stream #0:0(und): Video: av1 (AV01 / 0x31305641), yuv420p(tv, progressive), 1920x1080, q=2-31, 1000 kb/s, 60 fps, 1k tbn (default)\n    Metadata:\n      encoder         : Lavc62.11.100 libsvtav1\n      handler_name    : VideoHandler\n      vendor_id       : [0][0][0][0]\n    Side data:\n      cpb: bitrate max/min/avg: 0/0/1000000 buffer size: 1000000 vbv_delay: N/A\nframe=    0 fps=0.0 q=0.0 size=       0KiB time=N/A bitrate=N/A speed=N/A elapsed=0:00:01.72    \nframe=    0 fps=0.0 q=0.0 size=       0KiB time=N/A bitrate=N/A speed=N/A elapsed=0:00:02.39    \nframe=    0 fps=0.0 q=0.0 size=       0KiB time=N/A bitrate=N/A speed=N/A elapsed=0:00:03.00    \nframe=    0 fps=0.0 q=0.0 size=       0KiB time=N/A bitrate=N/A speed=N/A elapsed=0:00:03.58    \nframe=    0 fps=0.0 q=0.0 size=       0KiB time=N/A bitrate=N/A speed=N/A elapsed=0:00:04.22    \nframe=    0 fps=0.0 q=0.0 size=       0KiB time=N/A bitrate=N/A speed=N/A elapsed=0:00:04.77    \nframe=    0 fps=0.0 q=0.0 size=       0KiB time=N/A bitrate=N/A speed=N/A elapsed=0:00:05.33    \nframe=    1 fps=0.2 q=40.0 size=       1KiB time=00:00:00.00 bitrate=N/A speed=   0x elapsed=0:00:05.88    \nframe=    1 fps=0.2 q=40.0 size=       1KiB time=00:00:00.00 bitrate=N/A speed=   0x elapsed=0:00:06.43    \nframe=    1 fps=0.1 q=40.0 size=       1KiB time=00:00:00.00 bitrate=N/A speed=   0x elapsed=0:00:06.97    \nframe=    7 fps=0.9 q=63.0 size=       1KiB time=00:00:00.08 bitrate=  68.4kbits/s speed=0.011x elapsed=0:00:07.54    \nframe=   13 fps=1.6 q=61.0 size=       1KiB time=00:00:00.20 bitrate=  28.5kbits/s speed=0.0247x elapsed=0:00:08.11    \nframe=   13 fps=1.5 q=61.0 size=       1KiB time=00:00:00.20 bitrate=  28.5kbits/s speed=0.0232x elapsed=0:00:08.62    \nframe=   14 fps=1.5 q=63.0 size=       1KiB time=00:00:00.21 bitrate=  26.3kbits/s speed=0.0236x elapsed=0:00:09.17    \nframe=   24 fps=2.5 q=63.0 size=       1KiB time=00:00:00.36 bitrate=  15.5kbits/s speed=0.0376x elapsed=0:00:09.74    \nframe=   29 fps=2.8 q=61.0 size=       1KiB time=00:00:00.46 bitrate=  12.2kbits/s speed=0.0451x elapsed=0:00:10.35    \nframe=   29 fps=2.7 q=61.0 size=       1KiB time=00:00:00.46 bitrate=  12.2kbits/s speed=0.0428x elapsed=0:00:10.90    \nframe=   30 fps=2.6 q=63.0 size=       1KiB time=00:00:00.48 bitrate=  11.8kbits/s speed=0.0422x elapsed=0:00:11.45    \nframe=   39 fps=3.2 q=62.0 size=       1KiB time=00:00:00.61 bitrate=   9.2kbits/s speed=0.0512x elapsed=0:00:12.03    \nframe=   45 fps=3.6 q=60.0 size=       1KiB time=00:00:00.73 bitrate=   7.8kbits/s speed=0.0581x elapsed=0:00:12.61    \nframe=   45 fps=3.4 q=60.0 size=       1KiB time=00:00:00.73 bitrate=   7.8kbits/s speed=0.0558x elapsed=0:00:13.13    \nframe=   46 fps=3.4 q=63.0 size=       1KiB time=00:00:00.75 bitrate=   7.6kbits/s speed=0.0548x elapsed=0:00:13.68    \nframe=   54 fps=3.8 q=62.0 size=       1KiB time=00:00:00.88 bitrate=   6.4kbits/s speed=0.0621x elapsed=0:00:14.22    \nframe=   61 fps=4.1 q=59.0 size=       1KiB time=00:00:01.00 bitrate=   5.7kbits/s speed=0.0677x elapsed=0:00:14.76    \nframe=   61 fps=4.0 q=59.0 size=       1KiB time=00:00:01.00 bitrate=   5.7kbits/s speed=0.0653x elapsed=0:00:15.30    \nframe=   61 fps=3.9 q=59.0 size=       1KiB time=00:00:01.00 bitrate=   5.7kbits/s speed=0.0632x elapsed=0:00:15.82    \nframe=   65 fps=4.0 q=47.0 size=       1KiB time=00:00:01.05 bitrate=   5.4kbits/s speed=0.0642x elapsed=0:00:16.35    \nframe=   74 fps=4.4 q=62.0 size=       1KiB time=00:00:01.21 bitrate=   4.7kbits/s speed=0.072x elapsed=0:00:16.89    \nframe=   77 fps=4.4 q=59.0 size=       1KiB time=00:00:01.26 bitrate=   4.5kbits/s speed=0.0726x elapsed=0:00:17.43    \nframe=   77 fps=4.3 q=59.0 size=       1KiB time=00:00:01.26 bitrate=   4.5kbits/s speed=0.0705x elapsed=0:00:17.97    \nframe=   81 fps=4.4 q=45.0 size=       1KiB time=00:00:01.30 bitrate=   4.4kbits/s speed=0.0702x elapsed=0:00:18.52    \nframe=   92 fps=4.8 q=62.0 size=       1KiB time=00:00:01.48 bitrate=   3.8kbits/s speed=0.0776x elapsed=0:00:19.11    \nframe=   93 fps=4.7 q=59.0 size=       1KiB time=00:00:01.53 bitrate=   3.7kbits/s speed=0.0776x elapsed=0:00:19.77    \nframe=   94 fps=4.6 q=62.0 size=       1KiB time=00:00:01.55 bitrate=   3.7kbits/s speed=0.0762x elapsed=0:00:20.32    \nframe=  102 fps=4.9 q=62.0 size=       1KiB time=00:00:01.68 bitrate=   3.4kbits/s speed=0.0807x elapsed=0:00:20.86    \nframe=  109 fps=5.1 q=59.0 size=       1KiB time=00:00:01.80 bitrate=   3.2kbits/s speed=0.0839x elapsed=0:00:21.45    \nframe=  109 fps=5.0 q=59.0 size=       1KiB time=00:00:01.80 bitrate=   3.2kbits/s speed=0.0818x elapsed=0:00:22.00    \nframe=  110 fps=4.9 q=62.0 size=       1KiB time=00:00:01.81 bitrate=   3.1kbits/s speed=0.0806x elapsed=0:00:22.53    \nframe=  122 fps=5.3 q=62.0 size=       1KiB time=00:00:01.98 bitrate=   2.9kbits/s speed=0.0858x elapsed=0:00:23.10    \nframe=  125 fps=5.3 q=59.0 size=       1KiB time=00:00:02.06 bitrate=   2.8kbits/s speed=0.0872x elapsed=0:00:23.69    \nframe=  125 fps=5.2 q=59.0 size=       1KiB time=00:00:02.06 bitrate=   2.8kbits/s speed=0.0853x elapsed=0:00:24.21    \nframe=  126 fps=5.1 q=62.0 size=       1KiB time=00:00:02.08 bitrate=   2.7kbits/s speed=0.0843x elapsed=0:00:24.72    \nframe=  134 fps=5.3 q=61.0 size=       1KiB time=00:00:02.21 bitrate=   2.6kbits/s speed=0.0877x elapsed=0:00:25.27    \nframe=  141 fps=5.4 q=58.0 size=       1KiB time=00:00:02.33 bitrate=   2.4kbits/s speed=0.0901x elapsed=0:00:25.89    \nframe=  141 fps=5.3 q=58.0 size=       1KiB time=00:00:02.33 bitrate=   2.4kbits/s speed=0.0881x elapsed=0:00:26.49    \nframe=  142 fps=5.3 q=61.0 size=       1KiB time=00:00:02.35 bitrate=   2.4kbits/s speed=0.087x elapsed=0:00:27.02    \nframe=  152 fps=5.5 q=61.0 size=       1KiB time=00:00:02.50 bitrate=   2.3kbits/s speed=0.0907x elapsed=0:00:27.55    \nframe=  157 fps=5.6 q=58.0 size=       1KiB time=00:00:02.60 bitrate=   2.2kbits/s speed=0.0923x elapsed=0:00:28.15    \nframe=  157 fps=5.5 q=58.0 size=       1KiB time=00:00:02.60 bitrate=   2.2kbits/s speed=0.0906x elapsed=0:00:28.68    \nframe=  162 fps=5.5 q=61.0 size=       1KiB time=00:00:02.66 bitrate=   2.1kbits/s speed=0.0913x elapsed=0:00:29.21    \nframe=  172 fps=5.8 q=61.0 size=       1KiB time=00:00:02.81 bitrate=   2.0kbits/s speed=0.0945x elapsed=0:00:29.80    \nframe=  173 fps=5.7 q=58.0 size=       1KiB time=00:00:02.86 bitrate=   2.0kbits/s speed=0.0943x elapsed=0:00:30.39    \nframe=  173 fps=5.6 q=58.0 size=       1KiB time=00:00:02.86 bitrate=   2.0kbits/s speed=0.0926x elapsed=0:00:30.97    \nframe=  174 fps=5.5 q=61.0 size=       1KiB time=00:00:02.88 bitrate=   2.0kbits/s speed=0.0913x elapsed=0:00:31.58    \nframe=  182 fps=5.7 q=61.0 size=       1KiB time=00:00:03.00 bitrate=   1.9kbits/s speed=0.0932x elapsed=0:00:32.17    \nframe=  189 fps=5.8 q=58.0 size=       1KiB time=00:00:03.13 bitrate=   1.8kbits/s speed=0.0956x elapsed=0:00:32.76    \nframe=  189 fps=5.7 q=58.0 size=       1KiB time=00:00:03.13 bitrate=   1.8kbits/s speed=0.0939x elapsed=0:00:33.38    \nframe=  189 fps=5.6 q=58.0 size=       1KiB time=00:00:03.13 bitrate=   1.8kbits/s speed=0.0921x elapsed=0:00:34.00    \nframe=  190 fps=5.5 q=61.0 size=       1KiB time=00:00:03.15 bitrate=   1.8kbits/s speed=0.0911x elapsed=0:00:34.58    \nframe=  200 fps=5.7 q=61.0 size=       1KiB time=00:00:03.28 bitrate=   1.7kbits/s speed=0.0933x elapsed=0:00:35.18    \nframe=  209 fps=5.8 q=44.0 size=       1KiB time=00:00:03.46 bitrate=   1.6kbits/s speed=0.0967x elapsed=0:00:35.86    \nframe=  209 fps=5.7 q=44.0 size=       1KiB time=00:00:03.46 bitrate=   1.6kbits/s speed=0.0951x elapsed=0:00:36.45    \nframe=  209 fps=5.7 q=44.0 size=       1KiB time=00:00:03.46 bitrate=   1.6kbits/s speed=0.0938x elapsed=0:00:36.96    \nframe=  225 fps=6.0 q=43.0 size=       1KiB time=00:00:03.73 bitrate=   1.5kbits/s speed=0.0996x elapsed=0:00:37.48    \nframe=  225 fps=5.9 q=43.0 size=       1KiB time=00:00:03.73 bitrate=   1.5kbits/s speed=0.0982x elapsed=0:00:38.02    \nframe=  225 fps=5.8 q=43.0 size=       1KiB time=00:00:03.73 bitrate=   1.5kbits/s speed=0.0969x elapsed=0:00:38.53    \nframe=  239 fps=6.1 q=59.0 size=       1KiB time=00:00:03.96 bitrate=   1.4kbits/s speed=0.101x elapsed=0:00:39.09    \nframe=  241 fps=6.1 q=43.0 size=       1KiB time=00:00:04.00 bitrate=   1.4kbits/s speed=0.101x elapsed=0:00:39.61    \nframe=  241 fps=6.0 q=43.0 size=       1KiB time=00:00:04.00 bitrate=   1.4kbits/s speed=0.0997x elapsed=0:00:40.13    \nframe=  257 fps=6.3 q=43.0 size=       1KiB time=00:00:04.26 bitrate=   1.3kbits/s speed=0.105x elapsed=0:00:40.64    \nframe=  257 fps=6.2 q=43.0 size=       1KiB time=00:00:04.26 bitrate=   1.3kbits/s speed=0.104x elapsed=0:00:41.16    \nframe=  271 fps=6.5 q=59.0 size=       1KiB time=00:00:04.46 bitrate=   1.3kbits/s speed=0.107x elapsed=0:00:41.68    \nframe=  273 fps=6.5 q=43.0 size=       1KiB time=00:00:04.53 bitrate=   1.3kbits/s speed=0.107x elapsed=0:00:42.20    \nframe=  275 fps=6.4 q=58.0 size=       1KiB time=00:00:04.56 bitrate=   1.2kbits/s speed=0.107x elapsed=0:00:42.72    \n[out#0/matroska @ 00000217a3b39180] video:526KiB audio:0KiB subtitle:0KiB other streams:0KiB global headers:0KiB muxing overhead: 0.377669%\nframe=  300 fps=7.0 q=60.0 Lsize=     528KiB time=00:00:04.98 bitrate= 868.7kbits/s speed=0.115x elapsed=0:00:43.15    \n",
  "seconds": 43.7643609046936,
  "probe_out": {}
}